HIERARCHY
ROOT hip
{
	OFFSET 0.000000 0.000000 0.000000
	CHANNELS 6 Xposition Yposition Zposition Xrotation Zrotation Yrotation 
	JOINT abdomen
	{
		OFFSET 0.000000 3.422050 0.000000
		CHANNELS 3 Xrotation Zrotation Yrotation 
		JOINT chest
		{
			OFFSET 0.000000 8.486693 -0.684411
			CHANNELS 3 Xrotation Zrotation Yrotation 
			JOINT neck
			{
				OFFSET 0.000000 10.266162 -0.273764
				CHANNELS 3 Xrotation Zrotation Yrotation 
				JOINT head
				{
					OFFSET 0.000000 3.148285 0.000000
					CHANNELS 3 Xrotation Zrotation Yrotation 
					End Site
					{
						OFFSET 0.000000 3.148289 0.000000
					}
				}
			}
			JOINT lCollar
			{
				OFFSET 3.422053 6.707223 -0.821293
				CHANNELS 3 Yrotation Zrotation Xrotation 
				JOINT lShldr
				{
					OFFSET 3.285171 0.000000 0.000000
					CHANNELS 3 Zrotation Yrotation Xrotation 
					JOINT lForeArm
					{
						OFFSET 10.129278 0.000000 0.000000
						CHANNELS 3 Yrotation Zrotation Xrotation 
						JOINT lHand
						{
							OFFSET 8.486692 0.000000 0.000000
							CHANNELS 3 Zrotation Yrotation Xrotation 
							End Site
							{
								OFFSET 4.106464 0.000000 0.000000
							}
						}
					}
				}
			}
			JOINT rCollar
			{
				OFFSET -3.558935 6.707223 -0.821293
				CHANNELS 3 Yrotation Zrotation Xrotation 
				JOINT rShldr
				{
					OFFSET -3.148289 0.000000 0.000000
					CHANNELS 3 Zrotation Yrotation Xrotation 
					JOINT rForeArm
					{
						OFFSET -10.266159 0.000000 0.000000
						CHANNELS 3 Yrotation Zrotation Xrotation 
						JOINT rHand
						{
							OFFSET -8.349810 0.000000 0.000000
							CHANNELS 3 Zrotation Yrotation Xrotation 
							End Site
							{
								OFFSET -4.106464 0.000000 0.000000
							}
						}
					}
				}
			}
		}
	}
	JOINT lThigh
	{
		OFFSET 5.338403 -1.642589 1.368821
		CHANNELS 3 Xrotation Zrotation Yrotation 
		JOINT lShin
		{
			OFFSET -2.053232 -20.121670 0.000000
			CHANNELS 3 Xrotation Zrotation Yrotation 
			JOINT lFoot
			{
				OFFSET 0.000000 -19.300380 -1.231939
				CHANNELS 3 Xrotation Yrotation Zrotation 
				End Site
				{
					OFFSET 0.000000 -2.463878 4.653993
				}
			}
		}
	}
	JOINT rThigh
	{
		OFFSET -5.338403 -1.642589 1.368821
		CHANNELS 3 Xrotation Zrotation Yrotation 
		JOINT rShin
		{
			OFFSET 2.053232 -20.121670 0.000000
			CHANNELS 3 Xrotation Zrotation Yrotation 
			JOINT rFoot
			{
				OFFSET 0.000000 -19.300380 -1.231939
				CHANNELS 3 Xrotation Yrotation Zrotation 
				End Site
				{
					OFFSET 0.000000 -2.463878 4.653993
				}
			}
		}
	}
}
MOTION
Frames: 19
Frame Time: 0.076905
0.000000 43.528500 0.000000 0.000000 0.000000 0.000000 0.000000 0.000000 0.000000 0.000000 0.000000 0.000000 0.000000 0.000000 0.000000 0.000000 0.000000 0.000000 0.000000 0.000000 0.000000 0.000000 0.000000 0.000000 0.000000 0.000000 0.000000 0.000000 0.000000 0.000000 0.000000 0.000000 0.000000 0.000000 0.000000 0.000000 0.000000 0.000000 0.000000 0.000000 0.000000 0.000000 0.000000 0.000000 0.000000 0.000000 0.000000 0.000000 0.000000 0.000000 0.000000 0.000000 0.000000 0.000000 0.000000 0.000000 0.000000 0.000000 0.000000 0.000000 
3.979968 20.018240 -15.075762 33.997101 0.000000 0.000000 44.715523 0.468792 -0.225023 3.768599 4.303371 0.202918 -0.981008 0.186801 -0.034823 -1.106853 0.019143 -0.008931 -14.984057 -9.952716 -12.842988 -49.635700 -50.578964 13.096425 -31.991312 2.526451 -18.662605 7.939118 6.742314 -40.465328 15.935875 -0.099008 -13.156482 42.927719 61.291473 8.194598 35.435383 -2.240825 -18.849060 -15.910977 -9.637447 -39.392563 -59.323170 21.734407 -32.370518 102.647545 4.348650 -4.962467 66.275520 -26.257240 11.896908 -61.533051 -11.726114 15.287645 118.323387 -4.666753 3.253762 57.575272 7.815547 -6.867220 
3.979968 20.018240 -15.075762 33.997101 0.000000 0.000000 44.715523 0.468792 -0.225023 3.901215 4.298976 0.202273 -1.957357 0.378054 -0.041457 -2.208759 0.039592 -0.013990 -15.149707 -9.698276 -12.872727 -48.165432 -51.188862 12.677463 -31.951164 2.535340 -18.664614 8.040724 6.153929 -40.453960 15.922807 -0.435987 -13.157419 41.120396 61.831047 7.389781 35.435127 -2.241683 -18.849222 -16.274935 -9.780947 -39.213642 -59.323170 21.734407 -32.370518 102.647545 4.348650 -4.962467 66.275520 -26.257238 11.896907 -61.533051 -11.726112 15.287645 118.323387 -4.666753 3.253762 57.575272 7.815547 -6.867220 
3.979968 20.018240 -15.075762 33.997101 0.000000 0.000000 44.715523 0.468792 -0.225023 4.033851 4.294581 0.201618 -2.934942 0.569397 -0.051363 -3.312312 0.059970 -0.019450 -15.315115 -9.443721 -12.901701 -46.665043 -51.793007 12.226727 -31.911013 2.544225 -18.666624 8.142148 5.565269 -40.443653 15.909731 -0.773013 -13.158434 39.261036 62.359100 6.532644 35.434860 -2.242541 -18.849379 -16.640051 -9.923532 -39.033447 -59.323170 21.734406 -32.370518 102.647545 4.348651 -4.962467 66.275520 -26.257240 11.896908 -61.533051 -11.726114 15.287645 118.323387 -4.666753 3.253762 57.575272 7.815547 -6.867220 
3.979968 20.018240 -15.075762 33.997105 0.000000 0.000000 44.715523 0.468792 -0.225023 4.166505 4.290187 0.200953 -3.913637 0.760747 -0.064549 -4.417309 0.080265 -0.025310 -15.480289 -9.189062 -12.929913 -45.133652 -52.390644 11.743173 -31.870869 2.553111 -18.668646 8.243408 4.976366 -40.434387 15.896646 -1.110079 -13.159527 37.348217 62.874645 5.621540 35.434608 -2.243401 -18.849546 -17.006327 -10.065194 -38.851986 -59.323170 21.734407 -32.370518 102.647530 4.348650 -4.962467 66.275520 -26.257242 11.896908 -61.533058 -11.726115 15.287647 118.323372 -4.666753 3.253762 57.575264 7.815547 -6.867219 
3.979968 20.018240 -15.075762 33.997101 0.000000 0.000000 44.715523 0.468792 -0.225023 4.299181 4.285796 0.200277 -4.893318 0.952018 -0.081019 -5.523550 0.100466 -0.031566 -15.645233 -8.934302 -12.957363 -43.570442 -52.981014 11.225793 -31.830717 2.561995 -18.670670 8.344519 4.387255 -40.426174 15.883549 -1.447180 -13.160696 35.380505 63.376446 4.654950 35.434349 -2.244258 -18.849707 -17.373755 -10.205914 -38.669258 -59.323170 21.734407 -32.370518 102.647537 4.348650 -4.962467 66.275520 -26.257242 11.896909 -61.533051 -11.726114 15.287647 118.323372 -4.666753 3.253762 57.575272 7.815547 -6.867220 
3.979968 20.018240 -15.075762 33.997101 0.000000 0.000000 44.715527 0.468792 -0.225023 4.431875 4.281404 0.199591 -5.873859 1.143124 -0.100775 -6.630827 0.120562 -0.038218 -15.809954 -8.679448 -12.984056 -41.974556 -53.563282 10.673576 -31.790565 2.570878 -18.672703 8.445500 3.797970 -40.419003 15.870445 -1.784311 -13.161942 33.356747 63.863342 3.631550 35.434093 -2.245117 -18.849867 -17.742329 -10.345676 -38.485271 -59.323177 21.734409 -32.370522 102.647545 4.348650 -4.962467 66.275520 -26.257240 11.896908 -61.533051 -11.726112 15.287645 118.323387 -4.666753 3.253762 57.575264 7.815547 -6.867220 
3.979968 20.018240 -15.075762 33.997101 0.000000 0.000000 44.715523 0.468792 -0.225023 4.564587 4.277014 0.198895 -6.855135 1.333981 -0.123815 -7.738937 0.140540 -0.045263 -15.974455 -8.424507 -13.009995 -40.345222 -54.136688 10.085575 -31.750422 2.579759 -18.674746 8.546367 3.208546 -40.412884 15.857333 -2.121464 -13.163270 31.275980 64.334114 2.550214 35.433830 -2.245975 -18.850029 -18.112041 -10.484464 -38.300026 -59.323170 21.734407 -32.370518 102.647552 4.348651 -4.962468 66.275520 -26.257236 11.896907 -61.533047 -11.726114 15.287645 118.323395 -4.666753 3.253762 57.575279 7.815547 -6.867220 
3.979968 20.018240 -15.075762 33.997101 0.000000 0.000000 44.715523 0.468792 -0.225023 4.697317 4.272624 0.198189 -7.837016 1.524502 -0.150137 -8.847675 0.160389 -0.052697 -16.138739 -8.169481 -13.035173 -38.681648 -54.700310 9.460862 -31.710266 2.588639 -18.676786 8.647133 2.619016 -40.407806 15.844202 -2.458634 -13.164670 29.137537 64.787575 1.410112 35.433575 -2.246834 -18.850189 -18.482893 -10.622265 -38.113537 -59.323170 21.734407 -32.370518 102.647545 4.348650 -4.962467 66.275520 -26.257238 11.896908 -61.533047 -11.726111 15.287643 118.323395 -4.666753 3.253762 57.575272 7.815547 -6.867220 
3.979968 20.018240 -15.075762 33.997105 0.000000 0.000000 44.715515 0.468792 -0.225023 4.830066 4.268235 0.197472 -8.819376 1.714601 -0.179733 -9.956832 0.180098 -0.060516 -16.302807 -7.914378 -13.059599 -36.983208 -55.253361 8.798609 -31.670109 2.597518 -18.678837 8.747814 2.029413 -40.403759 15.831064 -2.795816 -13.166151 26.940994 65.222366 0.210716 35.433315 -2.247692 -18.850353 -18.854876 -10.759060 -37.925800 -59.323177 21.734407 -32.370522 102.647545 4.348650 -4.962467 66.275520 -26.257240 11.896908 -61.533051 -11.726114 15.287645 118.323387 -4.666753 3.253762 57.575272 7.815547 -6.867220 
3.979968 20.018240 -15.075762 33.997101 0.000000 0.000000 44.715523 0.468792 -0.225023 4.962831 4.263847 0.196745 -9.802089 1.904194 -0.212594 -11.066202 0.199655 -0.068717 -16.466669 -7.659200 -13.083272 -35.249222 -55.794910 8.098014 -31.629957 2.606396 -18.680899 8.848430 1.439772 -40.400753 15.817912 -3.133004 -13.167709 24.686409 65.637283 -1.048107 35.433060 -2.248551 -18.850515 -19.227982 -10.894834 -37.736824 -59.323170 21.734407 -32.370518 102.647545 4.348651 -4.962468 66.275520 -26.257242 11.896909 -61.533051 -11.726115 15.287647 118.323387 -4.666753 3.253762 57.575272 7.815547 -6.867220 
3.979968 20.018240 -15.075762 33.997101 0.000000 0.000000 44.715523 0.468792 -0.225023 5.095616 4.259461 0.196007 -10.785023 2.093197 -0.248707 -12.175574 0.219050 -0.077296 -16.630329 -7.403960 -13.106197 -33.479195 -56.324097 7.358403 -31.589796 2.615272 -18.682961 8.948993 0.850126 -40.398777 15.804742 -3.470190 -13.169343 22.374191 66.030998 -2.366066 35.432800 -2.249409 -18.850676 -19.602203 -11.029572 -37.546612 -59.323170 21.734407 -32.370518 102.647545 4.348650 -4.962467 66.275520 -26.257240 11.896908 -61.533051 -11.726114 15.287645 118.323387 -4.666753 3.253762 57.575272 7.815547 -6.867220 
3.979968 20.018240 -15.075762 33.997101 0.000000 0.000000 44.715523 0.468792 -0.225023 5.228415 4.255075 0.195259 -11.768048 2.281523 -0.288059 -13.284743 0.238272 -0.086246 -16.793791 -7.148659 -13.128372 -31.672670 -56.839966 6.579188 -31.549639 2.624146 -18.685026 9.049520 0.260511 -40.397850 15.791565 -3.807372 -13.171060 20.005314 66.402275 -3.742363 35.432541 -2.250268 -18.850836 -19.977537 -11.163258 -37.355167 -59.323170 21.734407 -32.370518 102.647545 4.348650 -4.962467 66.275520 -26.257240 11.896908 -61.533051 -11.726112 15.287645 118.323387 -4.666753 3.253762 57.575272 7.815547 -6.867220 
3.979968 20.018240 -15.075762 33.997101 0.000000 0.000000 44.715523 0.468792 -0.225023 5.361233 4.250692 0.194501 -12.751038 2.469090 -0.330630 -14.393502 0.257310 -0.095563 -16.957060 -6.893303 -13.149804 -29.829380 -57.341671 5.759924 -31.509483 2.633020 -18.687103 9.150030 -0.329042 -40.397957 15.778365 -4.144540 -13.172849 17.581236 66.749825 -5.175655 35.432281 -2.251127 -18.850996 -20.353973 -11.295878 -37.162510 -59.323170 21.734407 -32.370518 102.647545 4.348650 -4.962467 66.275520 -26.257240 11.896908 -61.533051 -11.726114 15.287645 118.323387 -4.666753 3.253762 57.575272 7.815547 -6.867220 
3.979968 20.018240 -15.075762 33.997105 0.000000 0.000000 44.715523 0.468792 -0.225023 5.494065 4.246308 0.193733 -13.733861 2.655814 -0.376402 -15.501640 0.276153 -0.105242 -17.120136 -6.637897 -13.170485 -27.949137 -57.828228 4.900298 -31.469322 2.641892 -18.689186 9.250532 -0.918497 -40.399086 15.765160 -4.481691 -13.174725 15.104036 67.072433 -6.664013 35.432030 -2.251985 -18.851162 -20.731506 -11.427414 -36.968636 -59.323170 21.734407 -32.370518 102.647545 4.348650 -4.962467 66.275520 -26.257240 11.896908 -61.533051 -11.726115 15.287647 118.323387 -4.666753 3.253762 57.575264 7.815547 -6.867220 
3.979968 20.018240 -15.075762 33.997105 0.000000 0.000000 44.715523 0.468792 -0.225023 5.626914 4.241927 0.192954 -14.716387 2.841615 -0.425349 -16.608955 0.294792 -0.115275 -17.283030 -6.382448 -13.190428 -26.031960 -58.298767 4.000163 -31.429163 2.650763 -18.691277 9.351045 -1.507820 -40.401241 15.751927 -4.818818 -13.176671 12.576426 67.368980 -8.204884 35.431770 -2.252844 -18.851322 -21.110126 -11.557852 -36.773560 -59.323170 21.734407 -32.370518 102.647545 4.348650 -4.962467 66.275520 -26.257240 11.896908 -61.533051 -11.726114 15.287645 118.323372 -4.666753 3.253762 57.575272 7.815547 -6.867220 
3.979968 20.018240 -15.075762 33.997101 0.000000 0.000000 44.715523 0.468792 -0.225023 5.759780 4.237547 0.192166 -15.698490 3.026408 -0.477447 -17.715240 0.313216 -0.125657 -17.445744 -6.126963 -13.209629 -24.078011 -58.752319 3.059561 -31.389002 2.659633 -18.693373 9.451591 -2.096978 -40.404457 15.738684 -5.155914 -13.178700 10.001775 67.638329 -9.795026 35.431507 -2.253702 -18.851484 -21.489826 -11.687176 -36.577271 -59.323177 21.734409 -32.370522 102.647545 4.348650 -4.962467 66.275520 -26.257240 11.896908 -61.533051 -11.726112 15.287645 118.323387 -4.666753 3.253762 57.575272 7.815547 -6.867219 
3.979968 20.018240 -15.075762 33.997101 0.000000 0.000000 44.715523 0.468792 -0.225023 5.892658 4.233168 0.191367 -16.680037 3.210115 -0.532667 -18.820290 0.331416 -0.136381 -17.608282 -5.871445 -13.228090 -22.087675 -59.188007 2.078731 -31.348841 2.668500 -18.695473 9.552176 -2.685938 -40.408691 15.725423 -5.492977 -13.180810 7.384093 67.879471 -11.430563 35.431252 -2.254560 -18.851645 -21.870604 -11.815372 -36.379799 -59.323166 21.734406 -32.370514 102.647545 4.348651 -4.962467 66.275520 -26.257240 11.896908 -61.533051 -11.726114 15.287645 118.323387 -4.666753 3.253762 57.575264 7.815547 -6.867219 
3.979968 20.018240 -15.075762 33.997101 0.000000 0.000000 44.715519 0.468792 -0.225023 6.025552 4.228790 0.190557 -17.660894 3.392657 -0.590978 -19.923904 0.349383 -0.147438 -17.770647 -5.615901 -13.245811 -20.061556 -59.604897 1.058148 -31.308672 2.677367 -18.697577 9.652820 -3.274664 -40.413960 15.712144 -5.829998 -13.183000 4.728062 68.091484 -13.106944 35.430992 -2.255419 -18.851809 -22.252441 -11.942421 -36.181129 -59.323177 21.734409 -32.370522 102.647545 4.348651 -4.962467 66.275520 -26.257242 11.896909 -61.533058 -11.726115 15.287647 118.323387 -4.666753 3.253762 57.575264 7.815547 -6.867219 
